M48
;Layer_Color=9474304
;FILE_FORMAT=4:4
METRIC,LZ
;TYPE=PLATED
T01F00S00C1.8000
%
G90
G05
T01
G00X00634Y00131303
M15
G01X00616Y00162479
M16
G00X00584Y00217905
M15
G01X00566Y00249082
M16
G00X00682Y0045
M15
G01X00718
M16
G00X00782Y0045
M15
G01X00818
M16
G00X00182Y0045
M15
G01X00218
M16
G00X00082Y0045
M15
G01X00118
M16
G00X00316Y00217905
M15
G01X00334Y00249082
M16
G00X00266Y00131303
M15
G01X00284Y00162479
M16
G00X00334Y00650918
M15
G01X00316Y00682095
M16
G00X00284Y0073752
M15
G01X00266Y00768697
M16
G00X00616Y0073752
M15
G01X00634Y00768697
M16
G00X00566Y00650918
M15
G01X00584Y00682095
M16
M30
