G04*
G04 #@! TF.GenerationSoftware,Altium Limited,Altium Designer,24.0.1 (36)*
G04*
G04 Layer_Color=2752767*
%FSLAX44Y44*%
%MOMM*%
G71*
G04*
G04 #@! TF.SameCoordinates,C0ED5DD7-DA47-4A81-9C3B-FA78DA4D2569*
G04*
G04*
G04 #@! TF.FilePolarity,Positive*
G04*
G01*
G75*
%ADD20C,0.1270*%
D20*
X625000Y141811D02*
X627540Y144351D01*
X630080D01*
X627540Y146891D01*
X630080Y149431D01*
X627540D01*
X625000Y151971D01*
X622460Y149431D01*
X619920D01*
X622460Y146891D01*
X619920Y144351D01*
X622460D01*
X625000Y141811D01*
X100000Y444920D02*
X102540Y447460D01*
X105080D01*
X102540Y450000D01*
X105080Y452540D01*
X102540D01*
X100000Y455080D01*
X97460Y452540D01*
X94920D01*
X97460Y450000D01*
X94920Y447460D01*
X97460D01*
X100000Y444920D01*
X200000D02*
X202540Y447460D01*
X205080D01*
X202540Y450000D01*
X205080Y452540D01*
X202540D01*
X200000Y455080D01*
X197460Y452540D01*
X194920D01*
X197460Y450000D01*
X194920Y447460D01*
X197460D01*
X200000Y444920D01*
X275000Y141811D02*
X277540Y144351D01*
X280080D01*
X277540Y146891D01*
X280080Y149431D01*
X277540D01*
X275000Y151971D01*
X272460Y149431D01*
X269920D01*
X272460Y146891D01*
X269920Y144351D01*
X272460D01*
X275000Y141811D01*
X325000Y228414D02*
X327540Y230954D01*
X330080D01*
X327540Y233494D01*
X330080Y236034D01*
X327540D01*
X325000Y238574D01*
X322460Y236034D01*
X319920D01*
X322460Y233494D01*
X319920Y230954D01*
X322460D01*
X325000Y228414D01*
X575000D02*
X577540Y230954D01*
X580080D01*
X577540Y233494D01*
X580080Y236034D01*
X577540D01*
X575000Y238574D01*
X572460Y236034D01*
X569920D01*
X572460Y233494D01*
X569920Y230954D01*
X572460D01*
X575000Y228414D01*
X325000Y661426D02*
X327540Y663966D01*
X330080D01*
X327540Y666506D01*
X330080Y669046D01*
X327540D01*
X325000Y671586D01*
X322460Y669046D01*
X319920D01*
X322460Y666506D01*
X319920Y663966D01*
X322460D01*
X325000Y661426D01*
X575000D02*
X577540Y663966D01*
X580080D01*
X577540Y666506D01*
X580080Y669046D01*
X577540D01*
X575000Y671586D01*
X572460Y669046D01*
X569920D01*
X572460Y666506D01*
X569920Y663966D01*
X572460D01*
X575000Y661426D01*
X700000Y444920D02*
X702540Y447460D01*
X705080D01*
X702540Y450000D01*
X705080Y452540D01*
X702540D01*
X700000Y455080D01*
X697460Y452540D01*
X694920D01*
X697460Y450000D01*
X694920Y447460D01*
X697460D01*
X700000Y444920D01*
X34920Y854920D02*
Y865080D01*
X45080D01*
Y854920D01*
X34920D01*
X854920D02*
Y865080D01*
X865080D01*
Y854920D01*
X854920D01*
Y34920D02*
Y45080D01*
X865080D01*
Y34920D01*
X854920D01*
X34920D02*
Y45080D01*
X45080D01*
Y34920D01*
X34920D01*
X275000Y748029D02*
X277540Y750569D01*
X280080D01*
X277540Y753109D01*
X280080Y755649D01*
X277540D01*
X275000Y758189D01*
X272460Y755649D01*
X269920D01*
X272460Y753109D01*
X269920Y750569D01*
X272460D01*
X275000Y748029D01*
X800000Y444920D02*
X802540Y447460D01*
X805080D01*
X802540Y450000D01*
X805080Y452540D01*
X802540D01*
X800000Y455080D01*
X797460Y452540D01*
X794920D01*
X797460Y450000D01*
X794920Y447460D01*
X797460D01*
X800000Y444920D01*
X625000Y748029D02*
X627540Y750569D01*
X630080D01*
X627540Y753109D01*
X630080Y755649D01*
X627540D01*
X625000Y758189D01*
X622460Y755649D01*
X619920D01*
X622460Y753109D01*
X619920Y750569D01*
X622460D01*
X625000Y748029D01*
M02*
