G04*
G04 #@! TF.GenerationSoftware,Altium Limited,Altium Designer,24.0.1 (36)*
G04*
G04 Layer_Color=8388736*
%FSLAX44Y44*%
%MOMM*%
G71*
G04*
G04 #@! TF.SameCoordinates,D455C0F4-C0DA-4954-B017-65243BD5B9B1*
G04*
G04*
G04 #@! TF.FilePolarity,Negative*
G04*
G01*
G75*
%ADD12C,2.4032*%
%ADD13R,2.4032X2.4032*%
%ADD14C,2.4732*%
%ADD15C,2.1532*%
%ADD16C,1.7432*%
%ADD17C,3.2032*%
%ADD18R,3.2032X3.2032*%
%ADD19C,6.7032*%
%ADD20C,1.7272*%
%ADD21O,2.0032X4.0032*%
%ADD22O,4.0032X2.0032*%
%ADD23C,1.4532*%
%ADD24C,1.5632*%
%ADD25C,1.3532*%
%ADD26C,1.8032*%
%ADD27C,1.6532*%
G04:AMPARAMS|DCode=28|XSize=6.2032mm|YSize=6.2032mm|CornerRadius=1.6016mm|HoleSize=0mm|Usage=FLASHONLY|Rotation=0.000|XOffset=0mm|YOffset=0mm|HoleType=Round|Shape=RoundedRectangle|*
%AMROUNDEDRECTD28*
21,1,6.2032,3.0000,0,0,0.0*
21,1,3.0000,6.2032,0,0,0.0*
1,1,3.2032,1.5000,-1.5000*
1,1,3.2032,-1.5000,-1.5000*
1,1,3.2032,-1.5000,1.5000*
1,1,3.2032,1.5000,1.5000*
%
%ADD28ROUNDEDRECTD28*%
G04:AMPARAMS|DCode=29|XSize=7.7032mm|YSize=7.7032mm|CornerRadius=1.9766mm|HoleSize=0mm|Usage=FLASHONLY|Rotation=0.000|XOffset=0mm|YOffset=0mm|HoleType=Round|Shape=RoundedRectangle|*
%AMROUNDEDRECTD29*
21,1,7.7032,3.7500,0,0,0.0*
21,1,3.7500,7.7032,0,0,0.0*
1,1,3.9532,1.8750,-1.8750*
1,1,3.9532,-1.8750,-1.8750*
1,1,3.9532,-1.8750,1.8750*
1,1,3.9532,1.8750,1.8750*
%
%ADD29ROUNDEDRECTD29*%
D12*
X399200Y785000D02*
D03*
D13*
X500800D02*
D03*
D14*
X605000Y220000D02*
D03*
X855000D02*
D03*
D15*
X348400Y53800D02*
D03*
Y130000D02*
D03*
X450000Y53800D02*
D03*
X399200D02*
D03*
X450000Y130000D02*
D03*
X399200D02*
D03*
D16*
X861500Y780000D02*
D03*
Y755000D02*
D03*
D17*
X450000Y306600D02*
D03*
X504500D02*
D03*
D18*
X395500D02*
D03*
D19*
X450000Y500000D02*
D03*
D20*
X45000Y170000D02*
D03*
Y270000D02*
D03*
X225000D02*
D03*
Y170000D02*
D03*
X315000Y270000D02*
D03*
Y170000D02*
D03*
X487500Y185000D02*
D03*
X412500D02*
D03*
X487500Y255000D02*
D03*
X412500D02*
D03*
X135000Y170000D02*
D03*
Y270000D02*
D03*
D21*
X599250Y785000D02*
D03*
D22*
X646250Y817000D02*
D03*
Y755000D02*
D03*
D23*
X320000Y557000D02*
D03*
Y377000D02*
D03*
D24*
X596000Y640500D02*
D03*
X646000D02*
D03*
X596000Y533500D02*
D03*
X646000D02*
D03*
X596250Y426250D02*
D03*
X646250D02*
D03*
D25*
X646500Y720000D02*
D03*
X501500D02*
D03*
D26*
X450000Y845000D02*
D03*
X425000D02*
D03*
X475000D02*
D03*
D27*
X394000Y377000D02*
D03*
X506000D02*
D03*
D28*
X115000Y40000D02*
D03*
X785000D02*
D03*
Y860000D02*
D03*
X115000D02*
D03*
D29*
X40000Y40000D02*
D03*
X860000D02*
D03*
Y860000D02*
D03*
X40000D02*
D03*
M02*
