G04*
G04 #@! TF.GenerationSoftware,Altium Limited,Altium Designer,24.0.1 (36)*
G04*
G04 Layer_Color=128*
%FSLAX44Y44*%
%MOMM*%
G71*
G04*
G04 #@! TF.SameCoordinates,D455C0F4-C0DA-4954-B017-65243BD5B9B1*
G04*
G04*
G04 #@! TF.FilePolarity,Positive*
G04*
G01*
G75*
%ADD54C,0.1270*%
D54*
X393200Y785000D02*
X405200D01*
X399200Y779000D02*
Y791000D01*
X494800Y785000D02*
X506800D01*
X500800Y779000D02*
Y791000D01*
X598000Y220000D02*
X612000D01*
X605000Y213000D02*
Y227000D01*
X848000Y220000D02*
X862000D01*
X855000Y213000D02*
Y227000D01*
X342400Y53800D02*
X354400D01*
X348400Y47800D02*
Y59800D01*
X342400Y130000D02*
X354400D01*
X348400Y124000D02*
Y136000D01*
X444000Y53800D02*
X456000D01*
X450000Y47800D02*
Y59800D01*
X393200Y53800D02*
X405200D01*
X399200Y47800D02*
Y59800D01*
X444000Y130000D02*
X456000D01*
X450000Y124000D02*
Y136000D01*
X393200Y130000D02*
X405200D01*
X399200Y124000D02*
Y136000D01*
X856750Y780000D02*
X866250D01*
X861500Y775250D02*
Y784750D01*
X856750Y755000D02*
X866250D01*
X861500Y750250D02*
Y759750D01*
X441500Y306600D02*
X458500D01*
X450000Y298100D02*
Y315100D01*
X496000Y306600D02*
X513000D01*
X504500Y298100D02*
Y315100D01*
X387000Y306600D02*
X404000D01*
X395500Y298100D02*
Y315100D01*
X417500Y500000D02*
X482500D01*
X450000Y467500D02*
Y532500D01*
X41190Y170000D02*
X48810D01*
X45000Y166190D02*
Y173810D01*
X41190Y270000D02*
X48810D01*
X45000Y266190D02*
Y273810D01*
X221190Y270000D02*
X228810D01*
X225000Y266190D02*
Y273810D01*
X221190Y170000D02*
X228810D01*
X225000Y166190D02*
Y173810D01*
X311190Y270000D02*
X318810D01*
X315000Y266190D02*
Y273810D01*
X311190Y170000D02*
X318810D01*
X315000Y166190D02*
Y173810D01*
X584250Y785000D02*
X614250D01*
X599250Y770000D02*
Y800000D01*
X641250Y817000D02*
X651250D01*
X646250Y812000D02*
Y822000D01*
X641250Y755000D02*
X651250D01*
X646250Y750000D02*
Y760000D01*
X483690Y185000D02*
X491310D01*
X487500Y181190D02*
Y188810D01*
X408690Y185000D02*
X416310D01*
X412500Y181190D02*
Y188810D01*
X483690Y255000D02*
X491310D01*
X487500Y251190D02*
Y258810D01*
X408690Y255000D02*
X416310D01*
X412500Y251190D02*
Y258810D01*
X131190Y170000D02*
X138810D01*
X135000Y166190D02*
Y173810D01*
X131190Y270000D02*
X138810D01*
X135000Y266190D02*
Y273810D01*
X316250Y557000D02*
X323750D01*
X320000Y553250D02*
Y560750D01*
X316250Y377000D02*
X323750D01*
X320000Y373250D02*
Y380750D01*
X592500Y640500D02*
X599500D01*
X596000Y637000D02*
Y644000D01*
X642500Y640500D02*
X649500D01*
X646000Y637000D02*
Y644000D01*
X643000Y720000D02*
X650000D01*
X646500Y716500D02*
Y723500D01*
X498000Y720000D02*
X505000D01*
X501500Y716500D02*
Y723500D01*
X592500Y533500D02*
X599500D01*
X596000Y530000D02*
Y537000D01*
X642500Y533500D02*
X649500D01*
X646000Y530000D02*
Y537000D01*
X445000Y845000D02*
X455000D01*
X450000Y840000D02*
Y850000D01*
X420000Y845000D02*
X430000D01*
X425000Y840000D02*
Y850000D01*
X470000Y845000D02*
X480000D01*
X475000Y840000D02*
Y850000D01*
X389500Y377000D02*
X398500D01*
X394000Y372500D02*
Y381500D01*
X501500Y377000D02*
X510500D01*
X506000Y372500D02*
Y381500D01*
X592750Y426250D02*
X599750D01*
X596250Y422750D02*
Y429750D01*
X642750Y426250D02*
X649750D01*
X646250Y422750D02*
Y429750D01*
X99000Y40000D02*
X131000D01*
X115000Y24000D02*
Y56000D01*
X769000Y40000D02*
X801000D01*
X785000Y24000D02*
Y56000D01*
X769000Y860000D02*
X801000D01*
X785000Y844000D02*
Y876000D01*
X99000Y860000D02*
X131000D01*
X115000Y844000D02*
Y876000D01*
X19000Y40000D02*
X61000D01*
X40000Y19000D02*
Y61000D01*
X839000Y40000D02*
X881000D01*
X860000Y19000D02*
Y61000D01*
X839000Y860000D02*
X881000D01*
X860000Y839000D02*
Y881000D01*
X19000Y860000D02*
X61000D01*
X40000Y839000D02*
Y881000D01*
M02*
