M48
;Layer_Color=9474304
;FILE_FORMAT=4:4
METRIC,LZ
;TYPE=PLATED
T01F00S00C0.7000
T02F00S00C0.7500
T03F00S00C0.7620
T04F00S00C0.9000
T05F00S00C0.9500
T06F00S00C1.0000
T08F00S00C1.2000
T09F00S00C1.4000
T10F00S00C1.7000
T11F00S00C3.2000
T12F00S00C4.2000
T13F00S00C6.5000
%
T01
X0059625Y0042625
X0064625
X00646Y005335
X00596
Y006405
X00646
X006465Y0072
X005015
T02
X0032Y00377
Y00557
T03
X004125Y00185
Y00255
X004875
Y00185
X00315Y0017
X00225
X00135
X00045
Y0027
X00135
X00225
X00315
T04
X00394Y00377
X00506
T05
X008615Y00755
Y0078
T06
X00425Y00845
X0045
X00475
T08
X0045Y000538
Y0013
X003992
X003484
Y000538
X003992
X005008Y00785
X003992
T09
X00855Y0022
X00605
T10
X0045Y003066
X005045
X003955
T11
X00785Y0004
X00115
X00785Y0086
X00115
T12
X0086Y0004
X0004
X0086Y0086
X0004
T13
X0045Y005
M30
