G04*
G04 #@! TF.GenerationSoftware,Altium Limited,Altium Designer,24.0.1 (36)*
G04*
G04 Layer_Physical_Order=2*
G04 Layer_Color=1930808*
%FSLAX44Y44*%
%MOMM*%
G71*
G04*
G04 #@! TF.SameCoordinates,D455C0F4-C0DA-4954-B017-65243BD5B9B1*
G04*
G04*
G04 #@! TF.FilePolarity,Positive*
G04*
G01*
G75*
%ADD30C,1.8000*%
%ADD31C,3.0000*%
%ADD35C,2.2000*%
%ADD36R,2.2000X2.2000*%
%ADD37C,2.2700*%
%ADD38C,1.9500*%
%ADD39C,1.5400*%
%ADD40C,3.0000*%
%ADD41R,3.0000X3.0000*%
%ADD42C,6.5000*%
%ADD43C,1.5240*%
%ADD44O,1.8000X3.8000*%
%ADD45O,3.8000X1.8000*%
%ADD46C,1.2500*%
%ADD47C,1.3600*%
%ADD48C,1.1500*%
%ADD49C,1.6000*%
%ADD50C,1.4500*%
G04:AMPARAMS|DCode=51|XSize=6mm|YSize=6mm|CornerRadius=1.5mm|HoleSize=0mm|Usage=FLASHONLY|Rotation=0.000|XOffset=0mm|YOffset=0mm|HoleType=Round|Shape=RoundedRectangle|*
%AMROUNDEDRECTD51*
21,1,6.0000,3.0000,0,0,0.0*
21,1,3.0000,6.0000,0,0,0.0*
1,1,3.0000,1.5000,-1.5000*
1,1,3.0000,-1.5000,-1.5000*
1,1,3.0000,-1.5000,1.5000*
1,1,3.0000,1.5000,1.5000*
%
%ADD51ROUNDEDRECTD51*%
G04:AMPARAMS|DCode=52|XSize=7.5mm|YSize=7.5mm|CornerRadius=1.875mm|HoleSize=0mm|Usage=FLASHONLY|Rotation=0.000|XOffset=0mm|YOffset=0mm|HoleType=Round|Shape=RoundedRectangle|*
%AMROUNDEDRECTD52*
21,1,7.5000,3.7500,0,0,0.0*
21,1,3.7500,7.5000,0,0,0.0*
1,1,3.7500,1.8750,-1.8750*
1,1,3.7500,-1.8750,-1.8750*
1,1,3.7500,-1.8750,1.8750*
1,1,3.7500,1.8750,1.8750*
%
%ADD52ROUNDEDRECTD52*%
%ADD53C,1.6000*%
D30*
X446240Y737961D02*
G03*
X489600Y720000I43361J43361D01*
G01*
X501500D01*
X399200Y785000D02*
X446240Y737961D01*
D31*
X450000Y128700D02*
Y306600D01*
Y52500D02*
Y128750D01*
D35*
X399200Y785000D02*
D03*
D36*
X500800D02*
D03*
D37*
X605000Y220000D02*
D03*
X855000D02*
D03*
D38*
X348400Y53800D02*
D03*
Y130000D02*
D03*
X450000Y53800D02*
D03*
X399200D02*
D03*
X450000Y130000D02*
D03*
X399200D02*
D03*
D39*
X861500Y780000D02*
D03*
Y755000D02*
D03*
D40*
X450000Y306600D02*
D03*
X504500D02*
D03*
D41*
X395500D02*
D03*
D42*
X450000Y500000D02*
D03*
D43*
X45000Y170000D02*
D03*
Y270000D02*
D03*
X225000D02*
D03*
Y170000D02*
D03*
X315000Y270000D02*
D03*
Y170000D02*
D03*
X487500Y185000D02*
D03*
X412500D02*
D03*
X487500Y255000D02*
D03*
X412500D02*
D03*
X135000Y170000D02*
D03*
Y270000D02*
D03*
D44*
X599250Y785000D02*
D03*
D45*
X646250Y817000D02*
D03*
Y755000D02*
D03*
D46*
X320000Y557000D02*
D03*
Y377000D02*
D03*
D47*
X596000Y640500D02*
D03*
X646000D02*
D03*
X596000Y533500D02*
D03*
X646000D02*
D03*
X596250Y426250D02*
D03*
X646250D02*
D03*
D48*
X646500Y720000D02*
D03*
X501500D02*
D03*
D49*
X450000Y845000D02*
D03*
X425000D02*
D03*
X475000D02*
D03*
D50*
X394000Y377000D02*
D03*
X506000D02*
D03*
D51*
X115000Y40000D02*
D03*
X785000D02*
D03*
Y860000D02*
D03*
X115000D02*
D03*
D52*
X40000Y40000D02*
D03*
X860000D02*
D03*
Y860000D02*
D03*
X40000D02*
D03*
D53*
X475000Y845000D02*
X475046Y844981D01*
X500800Y785000D02*
X500800Y785000D01*
M02*
