G04*
G04 #@! TF.GenerationSoftware,Altium Limited,Altium Designer,24.0.1 (36)*
G04*
G04 Layer_Color=32896*
%FSLAX44Y44*%
%MOMM*%
G71*
G04*
G04 #@! TF.SameCoordinates,9C8BCC2B-501B-40A3-BBBE-7B9C73712F20*
G04*
G04*
G04 #@! TF.FilePolarity,Positive*
G04*
G01*
G75*
%ADD10C,0.2540*%
G36*
X876552Y726825D02*
X877240Y726762D01*
X877927Y726700D01*
X878572Y726658D01*
X879197Y726617D01*
X879781Y726596D01*
X880322Y726575D01*
X880822Y726554D01*
X881280Y726533D01*
X881676D01*
X882009Y726513D01*
X882946D01*
X883259Y726533D01*
X883613D01*
X883988Y726554D01*
X884738Y726596D01*
X885487Y726658D01*
X885842Y726679D01*
X886154Y726721D01*
X886445Y726742D01*
X886716Y726762D01*
X886925Y726783D01*
X887070D01*
X887175Y726804D01*
X887216D01*
X887154Y726513D01*
X887195D01*
X885925Y717390D01*
X887424Y718056D01*
X886279Y710558D01*
X887383Y711287D01*
X885196Y698811D01*
X884529Y706059D01*
X883571Y704560D01*
X883759Y712433D01*
X883634Y712183D01*
X882488Y710433D01*
Y715786D01*
X878968D01*
X878739Y715765D01*
X878510Y715724D01*
X878323Y715640D01*
X878135Y715536D01*
X877823Y715265D01*
X877573Y714953D01*
X877385Y714641D01*
X877260Y714391D01*
X877219Y714266D01*
X877177Y714182D01*
X877156Y714141D01*
Y714120D01*
X877073Y719535D01*
X877177Y719306D01*
X877281Y719119D01*
X877406Y718931D01*
X877510Y718785D01*
X877739Y718535D01*
X877969Y718348D01*
X878177Y718223D01*
X878343Y718160D01*
X878447Y718119D01*
X882488D01*
X882571Y723847D01*
X877073Y723971D01*
X876740Y723951D01*
X876427Y723909D01*
X876136Y723826D01*
X875886Y723721D01*
X875657Y723617D01*
X875490Y723534D01*
X875386Y723472D01*
X875344Y723451D01*
X875032Y723242D01*
X874761Y723013D01*
X874553Y722805D01*
X874365Y722597D01*
X874219Y722430D01*
X874115Y722284D01*
X874053Y722201D01*
X874032Y722159D01*
X875136Y726971D01*
X876552Y726825D01*
D02*
G37*
G36*
X870991Y724221D02*
X870866Y724013D01*
X870762Y723784D01*
X870699Y723534D01*
X870658Y723305D01*
X870637Y723118D01*
Y723034D01*
Y722972D01*
Y722951D01*
Y722930D01*
Y722784D01*
X870679Y722597D01*
X870762Y722222D01*
X870804Y722055D01*
X870845Y721909D01*
X870866Y721826D01*
X870887Y721785D01*
X873032Y715057D01*
X873386Y714995D01*
X873720Y714891D01*
X874032Y714765D01*
X874324Y714599D01*
X874886Y714245D01*
X875136Y714057D01*
X875365Y713870D01*
X875573Y713682D01*
X875740Y713516D01*
X875907Y713349D01*
X876031Y713183D01*
X876136Y713078D01*
X876219Y712974D01*
X876261Y712912D01*
X876281Y712891D01*
X874928Y711412D01*
X875657Y712724D01*
X875469Y712912D01*
X875282Y713078D01*
X874907Y713349D01*
X874511Y713537D01*
X874157Y713682D01*
X873845Y713766D01*
X873720Y713807D01*
X873615Y713828D01*
X873511D01*
X873449Y713849D01*
X873386D01*
X876240Y704997D01*
X876323Y704726D01*
X876406Y704497D01*
X876469Y704331D01*
X876510Y704206D01*
X876531Y704122D01*
X876552Y704060D01*
X876573Y704018D01*
X876656Y703914D01*
X876802Y703810D01*
X876948Y703727D01*
X877094Y703643D01*
X877240Y703581D01*
X877365Y703518D01*
X877448Y703498D01*
X877489Y703477D01*
X875990Y703414D01*
X873990D01*
X872762Y703477D01*
X873053Y703623D01*
X873261Y703768D01*
X873428Y703914D01*
X873532Y704060D01*
X873595Y704164D01*
X873615Y704268D01*
X873636Y704331D01*
Y704352D01*
Y704476D01*
X873615Y704622D01*
X873532Y704914D01*
X873511Y705039D01*
X873470Y705143D01*
X873449Y705226D01*
Y705247D01*
X871116Y712454D01*
X870991Y712870D01*
X870429Y712370D01*
X869908Y711912D01*
X869408Y711496D01*
X868929Y711141D01*
X868492Y710829D01*
X868075Y710579D01*
X867721Y710350D01*
X867367Y710163D01*
X867075Y709996D01*
X866805Y709871D01*
X866576Y709788D01*
X866388Y709704D01*
X866242Y709663D01*
X866138Y709621D01*
X866076Y709600D01*
X866055D01*
X865284Y707038D01*
X865222Y706788D01*
X865180Y706601D01*
X865138Y706455D01*
X865118Y706330D01*
X865097Y706247D01*
Y706205D01*
Y706163D01*
X865118Y705914D01*
X865201Y705705D01*
X865284Y705539D01*
X865409Y705414D01*
X865513Y705330D01*
X865618Y705289D01*
X865701Y705247D01*
X865722D01*
X866471Y704747D01*
X860411D01*
X861285Y705247D01*
X861431Y705393D01*
X861535Y705518D01*
X861723Y705789D01*
X861764Y705893D01*
X861806Y705976D01*
X861848Y706039D01*
Y706059D01*
Y706080D01*
X861868Y706101D01*
X861910Y706226D01*
X861973Y706372D01*
X862035Y706538D01*
X862077Y706726D01*
X862139Y706872D01*
X862160Y706976D01*
X862181Y707018D01*
X863389Y710746D01*
X863139Y711037D01*
X862910Y711329D01*
X862681Y711662D01*
X862472Y711974D01*
X862306Y712245D01*
X862181Y712474D01*
X862139Y712558D01*
X862097Y712620D01*
X862077Y712662D01*
Y712683D01*
X862472Y712454D01*
X862806Y712266D01*
X863097Y712120D01*
X863326Y711995D01*
X863493Y711912D01*
X863618Y711850D01*
X863701Y711829D01*
X863722Y711808D01*
X867055Y722097D01*
X867117Y722305D01*
X867159Y722472D01*
X867180Y722638D01*
X867200Y722784D01*
X867221Y722888D01*
Y722972D01*
Y723013D01*
Y723034D01*
X867200Y723388D01*
X867138Y723680D01*
X867034Y723909D01*
X866930Y724096D01*
X866846Y724221D01*
X866742Y724305D01*
X866680Y724346D01*
X866659Y724367D01*
X871158D01*
X870991Y724221D01*
D02*
G37*
G36*
X859369Y724305D02*
X859202Y724117D01*
X859057Y723951D01*
X858952Y723784D01*
X858848Y723680D01*
X858807Y723597D01*
X858786Y723576D01*
X857932Y716473D01*
X859452Y717140D01*
X858307Y709663D01*
X859390Y710371D01*
X857224Y697916D01*
X856557Y705164D01*
X855578Y703664D01*
X855766Y711516D01*
X855641Y711287D01*
X854495Y709538D01*
X854558Y718348D01*
X849913Y705789D01*
X849830Y705580D01*
X849767Y705393D01*
X849705Y705226D01*
X849642Y705101D01*
X849601Y704997D01*
X849559Y704914D01*
X849517Y704789D01*
X849476Y704726D01*
X849455Y704706D01*
X849476Y704601D01*
X849517Y704497D01*
X849642Y704310D01*
X849705Y704227D01*
X849767Y704164D01*
X849809Y704122D01*
X849830Y704102D01*
X849955Y703977D01*
X850080Y703873D01*
X850184Y703789D01*
X850267Y703747D01*
X850350Y703706D01*
X850413Y703685D01*
X850434Y703664D01*
X844415D01*
X844581Y703727D01*
X844706Y703810D01*
X844935Y704018D01*
X845081Y704247D01*
X845206Y704518D01*
X845268Y704768D01*
X845289Y704976D01*
X845310Y705060D01*
Y705122D01*
Y705164D01*
Y705185D01*
Y721951D01*
X845289Y722180D01*
X845268Y722368D01*
X845164Y722701D01*
X844998Y722972D01*
X844831Y723159D01*
X844665Y723305D01*
X844498Y723388D01*
X844394Y723430D01*
X844352Y723451D01*
Y723492D01*
X849372D01*
X849330Y723388D01*
X849163Y723326D01*
X849018Y723263D01*
X848809Y723076D01*
X848643Y722826D01*
X848518Y722576D01*
X848455Y722347D01*
X848434Y722139D01*
X848413Y722055D01*
Y722014D01*
Y721972D01*
Y721951D01*
Y707871D01*
X854412Y722764D01*
X854433Y722805D01*
X854454Y722847D01*
X854516Y722972D01*
X854600Y723076D01*
X854620Y723097D01*
Y723118D01*
X854683Y723222D01*
X854724Y723305D01*
X854787Y723430D01*
X854808Y723492D01*
Y723513D01*
Y723701D01*
X854787Y723867D01*
X854724Y724138D01*
X854641Y724346D01*
X854558Y724492D01*
X854474Y724576D01*
X854391Y724638D01*
X854329Y724680D01*
X854308D01*
X858911Y724700D01*
X859744Y724742D01*
X859369Y724305D01*
D02*
G37*
%LPC*%
G36*
X869054Y719410D02*
X866951Y712474D01*
X866617Y711454D01*
X866930Y711537D01*
X867242Y711662D01*
X867575Y711808D01*
X867909Y711995D01*
X868575Y712412D01*
X869221Y712849D01*
X869512Y713078D01*
X869783Y713287D01*
X870033Y713474D01*
X870220Y713641D01*
X870408Y713787D01*
X870533Y713891D01*
X870616Y713974D01*
X870637Y713995D01*
X869054Y719410D01*
D02*
G37*
%LPD*%
D10*
X836000Y733000D02*
Y807000D01*
X893500Y787000D02*
Y807000D01*
Y733000D02*
Y753000D01*
X836000Y733000D02*
X893500D01*
X836000Y807000D02*
X893500D01*
M02*
