G04*
G04 #@! TF.GenerationSoftware,Altium Limited,Altium Designer,24.0.1 (36)*
G04*
G04 Layer_Color=2752767*
%FSLAX44Y44*%
%MOMM*%
G71*
G04*
G04 #@! TF.SameCoordinates,9C8BCC2B-501B-40A3-BBBE-7B9C73712F20*
G04*
G04*
G04 #@! TF.FilePolarity,Positive*
G04*
G01*
G75*
%ADD59C,0.1270*%
%ADD60C,0.1693*%
%ADD61C,0.1016*%
D59*
X527000Y142696D02*
Y130000D01*
X533348D01*
X535464Y132116D01*
Y134232D01*
X533348Y136348D01*
X527000D01*
X533348D01*
X535464Y138464D01*
Y140580D01*
X533348Y142696D01*
X527000D01*
X612000D02*
Y130000D01*
X618348D01*
X620464Y132116D01*
Y134232D01*
X618348Y136348D01*
X612000D01*
X618348D01*
X620464Y138464D01*
Y140580D01*
X618348Y142696D01*
X612000D01*
X323292Y844865D02*
X328372Y849945D01*
X333452Y844865D01*
X328372Y839785D01*
X323292Y844865D01*
X298292D02*
X303372Y849945D01*
X308452Y844865D01*
X303372Y839785D01*
X298292Y844865D01*
X348292D02*
X353372Y849945D01*
X358452Y844865D01*
X353372Y839785D01*
X348292Y844865D01*
X463292Y766485D02*
Y776645D01*
X473452D01*
Y766485D01*
X463292D01*
Y868085D02*
Y878245D01*
X473452D01*
Y868085D01*
X463292D01*
X393896Y870825D02*
Y868285D01*
X398976D01*
Y870825D01*
X401516D01*
Y875905D01*
X398976D01*
Y878445D01*
X393896D01*
Y875905D01*
X391356D01*
Y870825D01*
X393896D01*
X394912Y871841D02*
Y870317D01*
X397960D01*
Y871841D01*
X399484D01*
Y874889D01*
X397960D01*
Y876413D01*
X394912D01*
Y874889D01*
X393388D01*
Y871841D01*
X394912D01*
X393896Y780825D02*
Y778285D01*
X398976D01*
Y780825D01*
X401516D01*
Y785905D01*
X398976D01*
Y788445D01*
X393896D01*
Y785905D01*
X391356D01*
Y780825D01*
X393896D01*
X394912Y781841D02*
Y780317D01*
X397960D01*
Y781841D01*
X399484D01*
Y784889D01*
X397960D01*
Y786413D01*
X394912D01*
Y784889D01*
X393388D01*
Y781841D01*
X394912D01*
X430832Y780825D02*
Y778285D01*
X435912D01*
Y780825D01*
X438452D01*
Y785905D01*
X435912D01*
Y788445D01*
X430832D01*
Y785905D01*
X428292D01*
Y780825D01*
X430832D01*
X431848Y781841D02*
Y780317D01*
X434896D01*
Y781841D01*
X436420D01*
Y784889D01*
X434896D01*
Y786413D01*
X431848D01*
Y784889D01*
X430324D01*
Y781841D01*
X431848D01*
X430832Y870825D02*
Y868285D01*
X435912D01*
Y870825D01*
X438452D01*
Y875905D01*
X435912D01*
Y878445D01*
X430832D01*
Y875905D01*
X428292D01*
Y870825D01*
X430832D01*
X431848Y871841D02*
Y870317D01*
X434896D01*
Y871841D01*
X436420D01*
Y874889D01*
X434896D01*
Y876413D01*
X431848D01*
Y874889D01*
X430324D01*
Y871841D01*
X431848D01*
X603292Y744785D02*
X605832Y749865D01*
X603292Y754945D01*
X608372Y752405D01*
X613452Y754945D01*
X610912Y749865D01*
X613452Y744785D01*
X608372Y747325D01*
X603292Y744785D01*
X605324Y746817D02*
X606848Y749865D01*
X605324Y752913D01*
X608372Y751389D01*
X611420Y752913D01*
X609896Y749865D01*
X611420Y746817D01*
X608372Y748341D01*
X605324Y746817D01*
X603292Y806785D02*
X605832Y811865D01*
X603292Y816945D01*
X608372Y814405D01*
X613452Y816945D01*
X610912Y811865D01*
X613452Y806785D01*
X608372Y809325D01*
X603292Y806785D01*
X605324Y808817D02*
X606848Y811865D01*
X605324Y814913D01*
X608372Y813389D01*
X611420Y814913D01*
X609896Y811865D01*
X611420Y808817D01*
X608372Y810341D01*
X605324Y808817D01*
X561372Y774785D02*
X556292Y784945D01*
X566452D01*
X561372Y774785D01*
Y776817D02*
X558324Y782913D01*
X564420D01*
X561372Y776817D01*
X513292Y868285D02*
Y878445D01*
X523452D01*
Y868285D01*
X513292D01*
X515324Y870317D02*
Y876413D01*
X521420D01*
Y870317D01*
X515324D01*
X513292Y723285D02*
Y733445D01*
X523452D01*
Y723285D01*
X513292D01*
X515324Y725317D02*
Y731413D01*
X521420D01*
Y725317D01*
X515324D01*
X323290Y565420D02*
Y575580D01*
X333450D01*
Y565420D01*
X323290D01*
X325322Y567452D02*
Y573548D01*
X331418D01*
Y567452D01*
X325322D01*
X323290Y420420D02*
Y430580D01*
X333450D01*
Y420420D01*
X323290D01*
X325322Y422452D02*
Y428548D01*
X331418D01*
Y422452D01*
X325322D01*
X450000Y301520D02*
X444920Y311680D01*
X455080D01*
X450000Y301520D01*
X504500D02*
X499420Y311680D01*
X509580D01*
X504500Y301520D01*
X395500D02*
X390420Y311680D01*
X400580D01*
X395500Y301520D01*
X444920Y494920D02*
X447460D01*
X450000Y497460D01*
X452540Y494920D01*
X455080D01*
Y497460D01*
X452540Y500000D01*
X455080Y502540D01*
Y505080D01*
X452540D01*
X450000Y502540D01*
X447460Y505080D01*
X444920D01*
Y502540D01*
X447460Y500000D01*
X444920Y497460D01*
Y494920D01*
X394120Y124920D02*
Y135080D01*
X404280D01*
Y124920D01*
X394120D01*
X444920D02*
Y135080D01*
X455080D01*
Y124920D01*
X444920D01*
X394120Y48720D02*
Y58880D01*
X404280D01*
Y48720D01*
X394120D01*
X444920D02*
Y58880D01*
X455080D01*
Y48720D01*
X444920D01*
X343320Y124920D02*
Y135080D01*
X353480D01*
Y124920D01*
X343320D01*
Y48720D02*
Y58880D01*
X353480D01*
Y48720D01*
X343320D01*
X188080Y231159D02*
Y228619D01*
X193160D01*
Y231159D01*
X195700D01*
Y236239D01*
X193160D01*
Y238779D01*
X188080D01*
Y236239D01*
X185540D01*
Y231159D01*
X188080D01*
X288080D02*
Y228619D01*
X293160D01*
Y231159D01*
X295700D01*
Y236239D01*
X293160D01*
Y238779D01*
X288080D01*
Y236239D01*
X285540D01*
Y231159D01*
X288080D01*
Y321159D02*
Y318619D01*
X293160D01*
Y321159D01*
X295700D01*
Y326239D01*
X293160D01*
Y328779D01*
X288080D01*
Y326239D01*
X285540D01*
Y321159D01*
X288080D01*
X188080D02*
Y318619D01*
X193160D01*
Y321159D01*
X195700D01*
Y326239D01*
X193160D01*
Y328779D01*
X188080D01*
Y326239D01*
X185540D01*
Y321159D01*
X188080D01*
X556920Y419920D02*
X559460Y425000D01*
X556920Y430080D01*
X562000Y427540D01*
X567080Y430080D01*
X564540Y425000D01*
X567080Y419920D01*
X562000Y422460D01*
X556920Y419920D01*
X606920D02*
X609460Y425000D01*
X606920Y430080D01*
X612000Y427540D01*
X617080Y430080D01*
X614540Y425000D01*
X617080Y419920D01*
X612000Y422460D01*
X606920Y419920D01*
X556920Y548420D02*
X559460Y553500D01*
X556920Y558580D01*
X562000Y556040D01*
X567080Y558580D01*
X564540Y553500D01*
X567080Y548420D01*
X562000Y550960D01*
X556920Y548420D01*
X606920D02*
X609460Y553500D01*
X606920Y558580D01*
X612000Y556040D01*
X617080Y558580D01*
X614540Y553500D01*
X617080Y548420D01*
X612000Y550960D01*
X606920Y548420D01*
X388920Y250000D02*
X394000Y255080D01*
X399080Y250000D01*
X394000Y244920D01*
X388920Y250000D01*
X500920D02*
X506000Y255080D01*
X511080Y250000D01*
X506000Y244920D01*
X500920Y250000D01*
X288080Y51159D02*
Y48619D01*
X293160D01*
Y51159D01*
X295700D01*
Y56239D01*
X293160D01*
Y58779D01*
X288080D01*
Y56239D01*
X285540D01*
Y51159D01*
X288080D01*
X188080D02*
Y48619D01*
X193160D01*
Y51159D01*
X195700D01*
Y56239D01*
X193160D01*
Y58779D01*
X188080D01*
Y56239D01*
X185540D01*
Y51159D01*
X188080D01*
Y141159D02*
Y138619D01*
X193160D01*
Y141159D01*
X195700D01*
Y146239D01*
X193160D01*
Y148779D01*
X188080D01*
Y146239D01*
X185540D01*
Y141159D01*
X188080D01*
X288080D02*
Y138619D01*
X293160D01*
Y141159D01*
X295700D01*
Y146239D01*
X293160D01*
Y148779D01*
X288080D01*
Y146239D01*
X285540D01*
Y141159D01*
X288080D01*
X109920Y34920D02*
X112460D01*
X115000Y37460D01*
X117540Y34920D01*
X120080D01*
Y37460D01*
X117540Y40000D01*
X120080Y42540D01*
Y45080D01*
X117540D01*
X115000Y42540D01*
X112460Y45080D01*
X109920D01*
Y42540D01*
X112460Y40000D01*
X109920Y37460D01*
Y34920D01*
X111952Y36952D02*
X113476D01*
X115000Y38476D01*
X116524Y36952D01*
X118048D01*
Y38476D01*
X116524Y40000D01*
X118048Y41524D01*
Y43048D01*
X116524D01*
X115000Y41524D01*
X113476Y43048D01*
X111952D01*
Y41524D01*
X113476Y40000D01*
X111952Y38476D01*
Y36952D01*
X779920Y34920D02*
X782460D01*
X785000Y37460D01*
X787540Y34920D01*
X790080D01*
Y37460D01*
X787540Y40000D01*
X790080Y42540D01*
Y45080D01*
X787540D01*
X785000Y42540D01*
X782460Y45080D01*
X779920D01*
Y42540D01*
X782460Y40000D01*
X779920Y37460D01*
Y34920D01*
X781952Y36952D02*
X783476D01*
X785000Y38476D01*
X786524Y36952D01*
X788048D01*
Y38476D01*
X786524Y40000D01*
X788048Y41524D01*
Y43048D01*
X786524D01*
X785000Y41524D01*
X783476Y43048D01*
X781952D01*
Y41524D01*
X783476Y40000D01*
X781952Y38476D01*
Y36952D01*
X779920Y854920D02*
X782460D01*
X785000Y857460D01*
X787540Y854920D01*
X790080D01*
Y857460D01*
X787540Y860000D01*
X790080Y862540D01*
Y865080D01*
X787540D01*
X785000Y862540D01*
X782460Y865080D01*
X779920D01*
Y862540D01*
X782460Y860000D01*
X779920Y857460D01*
Y854920D01*
X781952Y856952D02*
X783476D01*
X785000Y858476D01*
X786524Y856952D01*
X788048D01*
Y858476D01*
X786524Y860000D01*
X788048Y861524D01*
Y863048D01*
X786524D01*
X785000Y861524D01*
X783476Y863048D01*
X781952D01*
Y861524D01*
X783476Y860000D01*
X781952Y858476D01*
Y856952D01*
X109920Y854920D02*
X112460D01*
X115000Y857460D01*
X117540Y854920D01*
X120080D01*
Y857460D01*
X117540Y860000D01*
X120080Y862540D01*
Y865080D01*
X117540D01*
X115000Y862540D01*
X112460Y865080D01*
X109920D01*
Y862540D01*
X112460Y860000D01*
X109920Y857460D01*
Y854920D01*
X111952Y856952D02*
X113476D01*
X115000Y858476D01*
X116524Y856952D01*
X118048D01*
Y858476D01*
X116524Y860000D01*
X118048Y861524D01*
Y863048D01*
X116524D01*
X115000Y861524D01*
X113476Y863048D01*
X111952D01*
Y861524D01*
X113476Y860000D01*
X111952Y858476D01*
Y856952D01*
X40000Y34920D02*
X42540Y37460D01*
X45080D01*
X42540Y40000D01*
X45080Y42540D01*
X42540D01*
X40000Y45080D01*
X37460Y42540D01*
X34920D01*
X37460Y40000D01*
X34920Y37460D01*
X37460D01*
X40000Y34920D01*
Y36952D02*
X41524Y38476D01*
X43048D01*
X41524Y40000D01*
X43048Y41524D01*
X41524D01*
X40000Y43048D01*
X38476Y41524D01*
X36952D01*
X38476Y40000D01*
X36952Y38476D01*
X38476D01*
X40000Y36952D01*
X860000Y34920D02*
X862540Y37460D01*
X865080D01*
X862540Y40000D01*
X865080Y42540D01*
X862540D01*
X860000Y45080D01*
X857460Y42540D01*
X854920D01*
X857460Y40000D01*
X854920Y37460D01*
X857460D01*
X860000Y34920D01*
Y36952D02*
X861524Y38476D01*
X863048D01*
X861524Y40000D01*
X863048Y41524D01*
X861524D01*
X860000Y43048D01*
X858476Y41524D01*
X856952D01*
X858476Y40000D01*
X856952Y38476D01*
X858476D01*
X860000Y36952D01*
Y854920D02*
X862540Y857460D01*
X865080D01*
X862540Y860000D01*
X865080Y862540D01*
X862540D01*
X860000Y865080D01*
X857460Y862540D01*
X854920D01*
X857460Y860000D01*
X854920Y857460D01*
X857460D01*
X860000Y854920D01*
Y856952D02*
X861524Y858476D01*
X863048D01*
X861524Y860000D01*
X863048Y861524D01*
X861524D01*
X860000Y863048D01*
X858476Y861524D01*
X856952D01*
X858476Y860000D01*
X856952Y858476D01*
X858476D01*
X860000Y856952D01*
X40000Y854920D02*
X42540Y857460D01*
X45080D01*
X42540Y860000D01*
X45080Y862540D01*
X42540D01*
X40000Y865080D01*
X37460Y862540D01*
X34920D01*
X37460Y860000D01*
X34920Y857460D01*
X37460D01*
X40000Y854920D01*
Y856952D02*
X41524Y858476D01*
X43048D01*
X41524Y860000D01*
X43048Y861524D01*
X41524D01*
X40000Y863048D01*
X38476Y861524D01*
X36952D01*
X38476Y860000D01*
X36952Y858476D01*
X38476D01*
X40000Y856952D01*
D60*
X710080Y755000D02*
G03*
X710080Y755000I-5080J0D01*
G01*
Y717000D02*
G03*
X710080Y717000I-5080J0D01*
G01*
Y679000D02*
G03*
X710080Y679000I-5080J0D01*
G01*
X735080Y882000D02*
G03*
X735080Y882000I-5080J0D01*
G01*
X685080D02*
G03*
X685080Y882000I-5080J0D01*
G01*
X875080Y782500D02*
G03*
X875080Y782500I-5080J0D01*
G01*
Y757500D02*
G03*
X875080Y757500I-5080J0D01*
G01*
D61*
X873048Y782500D02*
G03*
X873048Y782500I-3048J0D01*
G01*
Y757500D02*
G03*
X873048Y757500I-3048J0D01*
G01*
M02*
