G04*
G04 #@! TF.GenerationSoftware,Altium Limited,Altium Designer,24.0.1 (36)*
G04*
G04 Layer_Physical_Order=2*
G04 Layer_Color=1930808*
%FSLAX44Y44*%
%MOMM*%
G71*
G04*
G04 #@! TF.SameCoordinates,9C8BCC2B-501B-40A3-BBBE-7B9C73712F20*
G04*
G04*
G04 #@! TF.FilePolarity,Positive*
G04*
G01*
G75*
%ADD33C,1.8000*%
%ADD40C,2.1500*%
%ADD41C,1.6000*%
%ADD42R,2.2000X2.2000*%
%ADD43C,2.2000*%
%ADD44C,1.1500*%
%ADD45O,3.8000X1.8000*%
%ADD46O,1.8000X3.8000*%
%ADD47C,1.3000*%
%ADD48C,2.6000*%
%ADD49C,3.0000*%
%ADD50R,3.0000X3.0000*%
%ADD51C,6.5000*%
%ADD52C,1.9500*%
%ADD53C,1.3600*%
%ADD54C,1.7000*%
%ADD55C,1.5400*%
G04:AMPARAMS|DCode=56|XSize=6mm|YSize=6mm|CornerRadius=1.5mm|HoleSize=0mm|Usage=FLASHONLY|Rotation=0.000|XOffset=0mm|YOffset=0mm|HoleType=Round|Shape=RoundedRectangle|*
%AMROUNDEDRECTD56*
21,1,6.0000,3.0000,0,0,0.0*
21,1,3.0000,6.0000,0,0,0.0*
1,1,3.0000,1.5000,-1.5000*
1,1,3.0000,-1.5000,-1.5000*
1,1,3.0000,-1.5000,1.5000*
1,1,3.0000,1.5000,1.5000*
%
%ADD56ROUNDEDRECTD56*%
G04:AMPARAMS|DCode=57|XSize=7.5mm|YSize=7.5mm|CornerRadius=1.875mm|HoleSize=0mm|Usage=FLASHONLY|Rotation=0.000|XOffset=0mm|YOffset=0mm|HoleType=Round|Shape=RoundedRectangle|*
%AMROUNDEDRECTD57*
21,1,7.5000,3.7500,0,0,0.0*
21,1,3.7500,7.5000,0,0,0.0*
1,1,3.7500,1.8750,-1.8750*
1,1,3.7500,-1.8750,-1.8750*
1,1,3.7500,-1.8750,1.8750*
1,1,3.7500,1.8750,1.8750*
%
%ADD57ROUNDEDRECTD57*%
D33*
X549777Y696961D02*
G03*
X593137Y679000I43361J43361D01*
G01*
X705000D01*
X518372Y728365D02*
X549777Y696961D01*
X303372Y814865D02*
Y844865D01*
X433372Y783365D02*
Y814865D01*
X303372D02*
X433372D01*
D40*
X527000Y130000D02*
D03*
X612000D02*
D03*
D41*
X328372Y844865D02*
D03*
X303372D02*
D03*
X353372D02*
D03*
X190620Y233699D02*
D03*
X290620D02*
D03*
Y323699D02*
D03*
X190620D02*
D03*
X290620Y53699D02*
D03*
X190620D02*
D03*
Y143699D02*
D03*
X290620D02*
D03*
D42*
X468372Y771565D02*
D03*
D43*
Y873165D02*
D03*
D44*
X396436Y873365D02*
D03*
Y783365D02*
D03*
X433372D02*
D03*
Y873365D02*
D03*
D45*
X608372Y749865D02*
D03*
Y811865D02*
D03*
D46*
X561372Y779865D02*
D03*
D47*
X518372Y873365D02*
D03*
Y728365D02*
D03*
X328370Y570500D02*
D03*
Y425500D02*
D03*
D48*
X705000Y755000D02*
D03*
Y717000D02*
D03*
Y679000D02*
D03*
X730000Y882000D02*
D03*
X680000D02*
D03*
D49*
X450000Y306600D02*
D03*
X504500D02*
D03*
D50*
X395500D02*
D03*
D51*
X450000Y500000D02*
D03*
D52*
X399200Y130000D02*
D03*
X450000D02*
D03*
X399200Y53800D02*
D03*
X450000D02*
D03*
X348400Y130000D02*
D03*
Y53800D02*
D03*
D53*
X562000Y425000D02*
D03*
X612000D02*
D03*
X562000Y553500D02*
D03*
X612000D02*
D03*
D54*
X394000Y250000D02*
D03*
X506000D02*
D03*
D55*
X870000Y782500D02*
D03*
Y757500D02*
D03*
D56*
X115000Y40000D02*
D03*
X785000D02*
D03*
Y860000D02*
D03*
X115000D02*
D03*
D57*
X40000Y40000D02*
D03*
X860000D02*
D03*
Y860000D02*
D03*
X40000D02*
D03*
M02*
