M48
;Layer_Color=9474304
;FILE_FORMAT=4:4
METRIC,LZ
;TYPE=PLATED
T01F00S00C0.6400
T02F00S00C0.7000
T03F00S00C0.7500
T04F00S00C0.9000
T05F00S00C0.9500
T06F00S00C1.0000
T08F00S00C1.2000
T09F00S00C1.3000
T10F00S00C1.6000
T11F00S00C1.7000
T12F00S00C3.2000
T13F00S00C4.2000
T14F00S00C6.5000
%
T01
X00433372Y00783365
Y00873365
X00396436
Y00783365
T02
X00562Y00425
X00612
Y005535
X00562
T03
X0032837Y004255
Y005705
X00518372Y00728365
Y00873365
T04
X0019062Y00053699
Y00143699
Y00233699
Y00323699
X0029062
Y00233699
Y00143699
Y00053699
T05
X0087Y007575
Y007825
T06
X00506Y0025
X00394
X00353372Y00844865
X00328372
X00303372
T08
X0045Y000538
Y0013
X003992
X003484
Y000538
X003992
X00468372Y00771565
Y00873165
T09
X00527Y0013
X00612
T10
X00705Y00679
Y00717
Y00755
X0073Y00882
X0068
T11
X0045Y003066
X005045
X003955
T12
X00785Y0004
X00115
X00785Y0086
X00115
T13
X0086Y0004
X0004
X0086Y0086
X0004
T14
X0045Y005
M30
