G04*
G04 #@! TF.GenerationSoftware,Altium Limited,Altium Designer,24.0.1 (36)*
G04*
G04 Layer_Color=16711935*
%FSLAX44Y44*%
%MOMM*%
G71*
G04*
G04 #@! TF.SameCoordinates,9C8BCC2B-501B-40A3-BBBE-7B9C73712F20*
G04*
G04*
G04 #@! TF.FilePolarity,Negative*
G04*
G01*
G75*
%ADD15C,2.3532*%
%ADD16C,1.8032*%
%ADD17R,2.4032X2.4032*%
%ADD18C,2.4032*%
%ADD19C,1.3532*%
%ADD20O,4.0032X2.0032*%
%ADD21O,2.0032X4.0032*%
%ADD22C,1.5032*%
%ADD23C,2.8032*%
%ADD24C,3.2032*%
%ADD25R,3.2032X3.2032*%
%ADD26C,6.7032*%
%ADD27C,2.1532*%
%ADD28C,1.5632*%
%ADD29C,1.9032*%
%ADD30C,1.7432*%
G04:AMPARAMS|DCode=31|XSize=6.2032mm|YSize=6.2032mm|CornerRadius=1.6016mm|HoleSize=0mm|Usage=FLASHONLY|Rotation=0.000|XOffset=0mm|YOffset=0mm|HoleType=Round|Shape=RoundedRectangle|*
%AMROUNDEDRECTD31*
21,1,6.2032,3.0000,0,0,0.0*
21,1,3.0000,6.2032,0,0,0.0*
1,1,3.2032,1.5000,-1.5000*
1,1,3.2032,-1.5000,-1.5000*
1,1,3.2032,-1.5000,1.5000*
1,1,3.2032,1.5000,1.5000*
%
%ADD31ROUNDEDRECTD31*%
G04:AMPARAMS|DCode=32|XSize=7.7032mm|YSize=7.7032mm|CornerRadius=1.9766mm|HoleSize=0mm|Usage=FLASHONLY|Rotation=0.000|XOffset=0mm|YOffset=0mm|HoleType=Round|Shape=RoundedRectangle|*
%AMROUNDEDRECTD32*
21,1,7.7032,3.7500,0,0,0.0*
21,1,3.7500,7.7032,0,0,0.0*
1,1,3.9532,1.8750,-1.8750*
1,1,3.9532,-1.8750,-1.8750*
1,1,3.9532,-1.8750,1.8750*
1,1,3.9532,1.8750,1.8750*
%
%ADD32ROUNDEDRECTD32*%
D15*
X527000Y130000D02*
D03*
X612000D02*
D03*
D16*
X328372Y844865D02*
D03*
X303372D02*
D03*
X353372D02*
D03*
X190620Y233699D02*
D03*
X290620D02*
D03*
Y323699D02*
D03*
X190620D02*
D03*
X290620Y53699D02*
D03*
X190620D02*
D03*
Y143699D02*
D03*
X290620D02*
D03*
D17*
X468372Y771565D02*
D03*
D18*
Y873165D02*
D03*
D19*
X396436Y873365D02*
D03*
Y783365D02*
D03*
X433372D02*
D03*
Y873365D02*
D03*
D20*
X608372Y749865D02*
D03*
Y811865D02*
D03*
D21*
X561372Y779865D02*
D03*
D22*
X518372Y873365D02*
D03*
Y728365D02*
D03*
X328370Y570500D02*
D03*
Y425500D02*
D03*
D23*
X705000Y755000D02*
D03*
Y717000D02*
D03*
Y679000D02*
D03*
X730000Y882000D02*
D03*
X680000D02*
D03*
D24*
X450000Y306600D02*
D03*
X504500D02*
D03*
D25*
X395500D02*
D03*
D26*
X450000Y500000D02*
D03*
D27*
X399200Y130000D02*
D03*
X450000D02*
D03*
X399200Y53800D02*
D03*
X450000D02*
D03*
X348400Y130000D02*
D03*
Y53800D02*
D03*
D28*
X562000Y425000D02*
D03*
X612000D02*
D03*
X562000Y553500D02*
D03*
X612000D02*
D03*
D29*
X394000Y250000D02*
D03*
X506000D02*
D03*
D30*
X870000Y782500D02*
D03*
Y757500D02*
D03*
D31*
X115000Y40000D02*
D03*
X785000D02*
D03*
Y860000D02*
D03*
X115000D02*
D03*
D32*
X40000Y40000D02*
D03*
X860000D02*
D03*
Y860000D02*
D03*
X40000D02*
D03*
M02*
